{"title":"Teenage Mutant Ninja Turtles Out of the Shadows CAM V.2 x264-P2P","uid":14843720,"size":1737166329,"categoryP":"video","categoryS":"movies","magnet":"?xt=urn:btih:0cdecf9d0a2c246679788ff0566e2c8bf9407919&amp;dn=Teenage+Mutant+Ninja+Turtles+Out+of+the+Shadows+CAM+V.2+x264-P2P&amp;tr=udp%3A%2F%2Ftracker.leechers-paradise.org%3A6969&amp;tr=udp%3A%2F%2Fzer0day.ch%3A1337&amp;tr=udp%3A%2F%2Fopen.demonii.com%3A1337&amp;tr=udp%3A%2F%2Ftracker.coppersurfer.tk%3A6969&amp;tr=udp%3A%2F%2Fexodus.desync.com%3A6969","seeders":5,"leechers":4,"uploader":"makintos13","files":2,"time":1465404106,"description":"screens:\r\n \nhttps://imgmak.com/Tlv\r\n \nhttps://imgmak.com/Tly\r\n \nhttps://imgmak.com/Tl6\r\n \nhttps://imgmak.com/Tl9\r\n \nhttps://imgmak.com/TlM\r\n \nhttps://imgmak.com/TlO\r\n \nhttps://imgmak.com/TlP\r\n \nhttps://imgmak.com/TlY\r\n \nhttps://imgmak.com/Tl0\r\n\r\n\r\nSource: LATINO+TOPDog\r\nSample: included\r\n\r\nNote: Full Movie and New Audio!\r\n\r\nFormat : Matroska\r\nFile size : 1.60 GiB\r\nDuration : 1h 44mn\r\nOverall bit rate : 2 198 Kbps\r\n\r\n\r\nVideo\r\nID : 1\r\nFormat : AVC\r\nFormat/Info : Advanced Video Codec\r\nFormat profile :   \r\nFormat settings, CABAC : Yes\r\nFormat settings, ReFrames : 3 frames\r\nCodec ID : V_MPEG4/ISO/AVC\r\nDuration : 1h 44mn\r\nBit rate : 2 000 Kbps\r\nWidth : 720 pixels\r\nHeight : 336 pixels\r\nDisplay aspect ratio : 2.143\r\nFrame rate mode : Constant\r\nFrame rate : 30.000 fps\r\nColor space : YUV\r\nChroma subsampling : 4:2:0\r\nBit depth : 8 bits\r\nScan type : Progressive\r\nBits/(Pixel*Frame) : 0.276\r\nStream size : 1.46 GiB (91%)\r\n\r\nAudio\r\nID : 2\r\nFormat : AAC\r\nFormat/Info : Advanced Audio Codec\r\nFormat profile : LC\r\nCodec ID : A_AAC\r\nDuration : 1h 44mn\r\nBit rate : 192 Kbps\r\nChannel(s) : 2 channels\r\nChannel positions : Front: L R\r\nSampling rate : 48.0 KHz\r\nFrame rate : 46.875 fps (1024 spf)\r\nCompression mode : Lossy\r\nStream size : 146 MiB (9%)\r\nDefault : Yes\r\nForced : No","torrent":{"xt":"urn:btih:0cdecf9d0a2c246679788ff0566e2c8bf9407919","amp;dn":"Teenage+Mutant+Ninja+Turtles+Out+of+the+Shadows+CAM+V.2+x264-P2P","amp;tr":["udp%3A%2F%2Ftracker.leechers-paradise.org%3A6969","udp%3A%2F%2Fzer0day.ch%3A1337","udp%3A%2F%2Fopen.demonii.com%3A1337","udp%3A%2F%2Ftracker.coppersurfer.tk%3A6969","udp%3A%2F%2Fexodus.desync.com%3A6969"],"infoHash":"0cdecf9d0a2c246679788ff0566e2c8bf9407919","infoHashBuffer":{"type":"Buffer","data":[12,222,207,157,10,44,36,102,121,120,143,240,86,110,44,139,249,64,121,25]},"announce":[],"urlList":[]}}